<?xml version="1.0" standalone="no"?>
<!DOCTYPE svg PUBLIC "-//W3C//DTD SVG 20010904//EN"
 "http://www.w3.org/TR/2001/REC-SVG-20010904/DTD/svg10.dtd">
<svg version="1.0" xmlns="http://www.w3.org/2000/svg"
 width="500.000000pt" height="500.000000pt" viewBox="0 0 500.000000 500.000000"
 preserveAspectRatio="xMidYMid meet">
<metadata>
Created by potrace 1.16, written by Peter Selinger 2001-2019
</metadata>
<g transform="translate(0.000000,500.000000) scale(0.100000,-0.100000)"
fill="#000000" stroke="none">
<path d="M4045 4584 c-55 -18 -158 -52 -230 -75 -71 -23 -139 -45 -150 -49
-53 -21 -300 -98 -331 -104 -10 -2 -37 -11 -59 -19 -22 -8 -74 -24 -115 -37
-41 -13 -97 -31 -125 -40 -27 -9 -84 -27 -125 -40 -88 -27 -178 -56 -237 -77
-50 -17 -52 -29 -23 -97 10 -25 17 -46 15 -46 -2 0 5 -26 16 -57 11 -32 21
-68 24 -81 2 -13 10 -42 18 -65 8 -23 25 -76 37 -117 13 -41 31 -102 41 -135
11 -33 44 -143 74 -245 31 -102 64 -210 74 -240 10 -30 33 -101 51 -157 18
-57 35 -103 39 -103 4 0 22 26 41 58 19 31 42 68 51 82 9 14 47 75 84 135 83
135 125 203 201 323 32 52 71 112 85 135 14 23 55 87 91 142 35 55 78 122 94
148 16 27 40 66 54 87 103 161 295 467 316 505 9 16 41 66 70 111 30 45 54 84
54 88 0 11 -34 4 -135 -30z"/>
<path d="M2518 4050 c-80 -125 -106 -166 -118 -189 -7 -14 -17 -30 -22 -35 -5
-6 -31 -47 -58 -91 -27 -44 -53 -85 -57 -91 -11 -14 -34 -53 -50 -85 -7 -15
-20 -32 -28 -39 -8 -7 -15 -16 -15 -21 0 -9 -139 -231 -169 -271 -12 -14 -21
-29 -21 -32 0 -3 -29 -49 -64 -103 -34 -54 -73 -116 -85 -138 -12 -22 -32 -57
-44 -77 -35 -59 -88 -150 -106 -183 -9 -16 -24 -41 -32 -55 -9 -14 -37 -61
-63 -105 -67 -114 -69 -117 -87 -145 -20 -31 -69 -119 -69 -124 0 -2 28 5 63
16 34 10 94 28 132 39 39 10 102 28 140 40 39 11 93 26 120 34 45 12 133 37
325 94 36 11 99 29 140 41 78 22 145 42 265 78 39 12 104 31 145 42 41 12 102
30 134 41 33 10 68 19 79 19 16 0 18 5 12 33 -4 17 -15 56 -26 85 -10 28 -16
52 -14 52 3 0 1 9 -5 19 -5 11 -16 43 -24 73 -8 29 -30 98 -49 153 -18 55 -51
154 -71 220 -21 66 -46 145 -56 175 -23 67 -85 264 -134 425 -55 178 -47 168
-88 105z"/>
<path d="M1780 3201 c-8 -5 -40 -14 -70 -20 -69 -15 -194 -44 -285 -65 -39 -9
-84 -19 -100 -21 -17 -3 -57 -12 -90 -20 -33 -8 -101 -24 -150 -35 l-91 -21
-23 -72 c-82 -249 -101 -313 -101 -329 0 -13 16 -7 70 25 39 23 87 52 108 64
49 30 62 36 65 32 1 -2 39 -78 84 -169 69 -140 145 -271 173 -303 4 -4 26 25
50 65 24 40 51 85 61 100 11 15 19 30 19 32 0 3 15 29 33 59 41 67 46 76 103
172 25 44 55 92 65 107 11 15 19 29 19 32 0 3 18 35 41 73 58 97 57 95 79 133
11 19 31 53 44 75 l23 39 -44 28 c-46 30 -59 33 -83 19z"/>
<path d="M2960 2629 c-14 -6 -47 -17 -75 -24 -51 -14 -254 -72 -355 -101 -30
-9 -86 -25 -125 -36 -91 -26 -192 -56 -230 -68 -16 -5 -55 -16 -85 -24 -30 -8
-102 -29 -160 -46 -58 -18 -112 -33 -120 -35 -8 -2 -42 -11 -75 -21 -33 -10
-66 -19 -73 -20 -7 -1 -37 -10 -67 -18 -30 -9 -80 -24 -110 -33 -60 -17 -65
-23 -35 -38 34 -17 238 -122 435 -223 105 -54 305 -157 445 -229 140 -72 309
-158 374 -192 66 -34 120 -60 122 -58 4 4 74 272 85 326 5 24 16 67 23 95 8
28 31 116 51 196 20 80 43 170 51 200 9 30 20 75 24 100 5 25 15 64 24 88 15
40 14 44 -7 75 -71 102 -72 104 -117 86z"/>
<path d="M3165 2483 c-4 -21 -13 -58 -20 -83 -17 -56 -55 -206 -61 -240 -3
-14 -11 -47 -19 -75 -8 -27 -23 -88 -35 -135 -20 -79 -30 -119 -51 -195 -4
-16 -17 -66 -28 -110 -11 -44 -27 -109 -36 -144 -9 -35 -19 -76 -21 -90 -3
-14 -9 -37 -14 -51 -6 -14 -14 -45 -19 -70 -5 -25 -17 -75 -27 -112 -10 -37
-16 -69 -14 -71 3 -1 95 -38 205 -81 110 -43 218 -86 241 -97 23 -10 46 -19
51 -19 5 0 25 -8 44 -17 19 -10 39 -18 44 -19 6 -1 32 -11 57 -23 26 -11 50
-21 54 -21 8 0 248 -94 334 -130 73 -32 303 -120 311 -120 4 0 -32 78 -80 172
-122 241 -533 1048 -668 1313 -61 121 -138 273 -170 338 -32 64 -61 117 -65
117 -4 0 -10 -17 -13 -37z"/>
</g>
</svg>
